<mxfile host="app.diagrams.net" agent="Mozilla/5.0 (Macintosh; Intel Mac OS X 10.15; rv:137.0) Gecko/20100101 Firefox/137.0" version="27.0.1">
  <diagram id="C5RBs43oDa-KdzZeNtuy" name="Page-1">
    <mxGraphModel dx="1656" dy="611" grid="1" gridSize="10" guides="1" tooltips="1" connect="1" arrows="1" fold="1" page="1" pageScale="1" pageWidth="827" pageHeight="1169" math="0" shadow="0">
      <root>
        <mxCell id="WIyWlLk6GJQsqaUBKTNV-0" />
        <mxCell id="WIyWlLk6GJQsqaUBKTNV-1" parent="WIyWlLk6GJQsqaUBKTNV-0" />
        <mxCell id="WIyWlLk6GJQsqaUBKTNV-3" value="Start" style="rounded=1;whiteSpace=wrap;html=1;fontSize=12;glass=0;strokeWidth=1;shadow=0;" parent="WIyWlLk6GJQsqaUBKTNV-1" vertex="1">
          <mxGeometry x="160" y="80" width="120" height="40" as="geometry" />
        </mxCell>
        <mxCell id="9YRlblP6MZ6Cb8axo9Pt-24" value="" style="edgeStyle=orthogonalEdgeStyle;rounded=0;orthogonalLoop=1;jettySize=auto;html=1;exitX=0.5;exitY=0.88;exitDx=0;exitDy=0;exitPerimeter=0;" edge="1" parent="WIyWlLk6GJQsqaUBKTNV-1" source="9YRlblP6MZ6Cb8axo9Pt-101" target="9YRlblP6MZ6Cb8axo9Pt-23">
          <mxGeometry relative="1" as="geometry">
            <mxPoint x="220" y="238.39999999999998" as="sourcePoint" />
          </mxGeometry>
        </mxCell>
        <mxCell id="9YRlblP6MZ6Cb8axo9Pt-26" value="" style="edgeStyle=orthogonalEdgeStyle;rounded=0;orthogonalLoop=1;jettySize=auto;html=1;entryX=0;entryY=0.5;entryDx=0;entryDy=0;entryPerimeter=0;" edge="1" parent="WIyWlLk6GJQsqaUBKTNV-1" source="9YRlblP6MZ6Cb8axo9Pt-23" target="9YRlblP6MZ6Cb8axo9Pt-28">
          <mxGeometry relative="1" as="geometry">
            <mxPoint x="360" y="340" as="targetPoint" />
          </mxGeometry>
        </mxCell>
        <mxCell id="9YRlblP6MZ6Cb8axo9Pt-113" value="Yes" style="edgeLabel;html=1;align=center;verticalAlign=middle;resizable=0;points=[];" vertex="1" connectable="0" parent="9YRlblP6MZ6Cb8axo9Pt-26">
          <mxGeometry x="-0.001" y="1" relative="1" as="geometry">
            <mxPoint as="offset" />
          </mxGeometry>
        </mxCell>
        <mxCell id="9YRlblP6MZ6Cb8axo9Pt-23" value="&lt;div&gt;Contains&lt;/div&gt;&lt;div&gt;&amp;nbsp;credentials&lt;/div&gt;&lt;div&gt;&amp;nbsp;data?&lt;/div&gt;" style="rhombus;whiteSpace=wrap;html=1;" vertex="1" parent="WIyWlLk6GJQsqaUBKTNV-1">
          <mxGeometry x="160" y="300" width="120" height="80" as="geometry" />
        </mxCell>
        <mxCell id="9YRlblP6MZ6Cb8axo9Pt-46" style="edgeStyle=orthogonalEdgeStyle;rounded=0;orthogonalLoop=1;jettySize=auto;html=1;entryX=0.5;entryY=0;entryDx=0;entryDy=0;" edge="1" parent="WIyWlLk6GJQsqaUBKTNV-1" source="9YRlblP6MZ6Cb8axo9Pt-28" target="9YRlblP6MZ6Cb8axo9Pt-45">
          <mxGeometry relative="1" as="geometry" />
        </mxCell>
        <mxCell id="9YRlblP6MZ6Cb8axo9Pt-28" value="Auth Screen" style="strokeWidth=2;html=1;shape=mxgraph.flowchart.display;whiteSpace=wrap;" vertex="1" parent="WIyWlLk6GJQsqaUBKTNV-1">
          <mxGeometry x="520" y="310" width="100" height="60" as="geometry" />
        </mxCell>
        <mxCell id="9YRlblP6MZ6Cb8axo9Pt-56" style="edgeStyle=orthogonalEdgeStyle;rounded=0;orthogonalLoop=1;jettySize=auto;html=1;entryX=0.5;entryY=0;entryDx=0;entryDy=0;" edge="1" parent="WIyWlLk6GJQsqaUBKTNV-1" source="9YRlblP6MZ6Cb8axo9Pt-36" target="9YRlblP6MZ6Cb8axo9Pt-54">
          <mxGeometry relative="1" as="geometry" />
        </mxCell>
        <mxCell id="9YRlblP6MZ6Cb8axo9Pt-36" value="Sign Up Screen" style="strokeWidth=2;html=1;shape=mxgraph.flowchart.display;whiteSpace=wrap;" vertex="1" parent="WIyWlLk6GJQsqaUBKTNV-1">
          <mxGeometry x="170" y="450" width="100" height="60" as="geometry" />
        </mxCell>
        <mxCell id="9YRlblP6MZ6Cb8axo9Pt-37" style="edgeStyle=orthogonalEdgeStyle;rounded=0;orthogonalLoop=1;jettySize=auto;html=1;entryX=0.5;entryY=0;entryDx=0;entryDy=0;entryPerimeter=0;" edge="1" parent="WIyWlLk6GJQsqaUBKTNV-1" source="9YRlblP6MZ6Cb8axo9Pt-23" target="9YRlblP6MZ6Cb8axo9Pt-36">
          <mxGeometry relative="1" as="geometry" />
        </mxCell>
        <mxCell id="9YRlblP6MZ6Cb8axo9Pt-38" value="No" style="edgeLabel;html=1;align=center;verticalAlign=middle;resizable=0;points=[];" vertex="1" connectable="0" parent="9YRlblP6MZ6Cb8axo9Pt-37">
          <mxGeometry x="0.0246" y="-1" relative="1" as="geometry">
            <mxPoint x="1" as="offset" />
          </mxGeometry>
        </mxCell>
        <mxCell id="9YRlblP6MZ6Cb8axo9Pt-41" style="edgeStyle=orthogonalEdgeStyle;rounded=0;orthogonalLoop=1;jettySize=auto;html=1;exitX=0;exitY=0.5;exitDx=0;exitDy=0;entryX=1;entryY=0.5;entryDx=0;entryDy=0;entryPerimeter=0;" edge="1" parent="WIyWlLk6GJQsqaUBKTNV-1" target="9YRlblP6MZ6Cb8axo9Pt-36">
          <mxGeometry relative="1" as="geometry">
            <mxPoint x="370" y="480" as="sourcePoint" />
          </mxGeometry>
        </mxCell>
        <mxCell id="9YRlblP6MZ6Cb8axo9Pt-98" value="" style="edgeStyle=orthogonalEdgeStyle;rounded=0;orthogonalLoop=1;jettySize=auto;html=1;" edge="1" parent="WIyWlLk6GJQsqaUBKTNV-1" source="9YRlblP6MZ6Cb8axo9Pt-45" target="9YRlblP6MZ6Cb8axo9Pt-36">
          <mxGeometry relative="1" as="geometry" />
        </mxCell>
        <mxCell id="9YRlblP6MZ6Cb8axo9Pt-100" value="&lt;div&gt;Signup&lt;/div&gt;" style="edgeLabel;html=1;align=center;verticalAlign=middle;resizable=0;points=[];" vertex="1" connectable="0" parent="9YRlblP6MZ6Cb8axo9Pt-98">
          <mxGeometry x="-0.0097" relative="1" as="geometry">
            <mxPoint as="offset" />
          </mxGeometry>
        </mxCell>
        <mxCell id="9YRlblP6MZ6Cb8axo9Pt-45" value="Login or signup" style="shape=parallelogram;perimeter=parallelogramPerimeter;whiteSpace=wrap;html=1;fixedSize=1;" vertex="1" parent="WIyWlLk6GJQsqaUBKTNV-1">
          <mxGeometry x="510" y="450" width="120" height="60" as="geometry" />
        </mxCell>
        <mxCell id="9YRlblP6MZ6Cb8axo9Pt-106" style="edgeStyle=orthogonalEdgeStyle;rounded=0;orthogonalLoop=1;jettySize=auto;html=1;entryX=0.5;entryY=0;entryDx=0;entryDy=0;" edge="1" parent="WIyWlLk6GJQsqaUBKTNV-1" source="9YRlblP6MZ6Cb8axo9Pt-50" target="9YRlblP6MZ6Cb8axo9Pt-104">
          <mxGeometry relative="1" as="geometry" />
        </mxCell>
        <mxCell id="9YRlblP6MZ6Cb8axo9Pt-50" value="Login Screen" style="strokeWidth=2;html=1;shape=mxgraph.flowchart.display;whiteSpace=wrap;" vertex="1" parent="WIyWlLk6GJQsqaUBKTNV-1">
          <mxGeometry x="520" y="570" width="100" height="60" as="geometry" />
        </mxCell>
        <mxCell id="9YRlblP6MZ6Cb8axo9Pt-51" style="edgeStyle=orthogonalEdgeStyle;rounded=0;orthogonalLoop=1;jettySize=auto;html=1;entryX=0.5;entryY=0;entryDx=0;entryDy=0;entryPerimeter=0;" edge="1" parent="WIyWlLk6GJQsqaUBKTNV-1" source="9YRlblP6MZ6Cb8axo9Pt-45" target="9YRlblP6MZ6Cb8axo9Pt-50">
          <mxGeometry relative="1" as="geometry" />
        </mxCell>
        <mxCell id="9YRlblP6MZ6Cb8axo9Pt-52" value="Login" style="edgeLabel;html=1;align=center;verticalAlign=middle;resizable=0;points=[];" vertex="1" connectable="0" parent="9YRlblP6MZ6Cb8axo9Pt-51">
          <mxGeometry x="0.0282" relative="1" as="geometry">
            <mxPoint as="offset" />
          </mxGeometry>
        </mxCell>
        <mxCell id="9YRlblP6MZ6Cb8axo9Pt-58" value="" style="edgeStyle=orthogonalEdgeStyle;rounded=0;orthogonalLoop=1;jettySize=auto;html=1;" edge="1" parent="WIyWlLk6GJQsqaUBKTNV-1" source="9YRlblP6MZ6Cb8axo9Pt-54" target="9YRlblP6MZ6Cb8axo9Pt-57">
          <mxGeometry relative="1" as="geometry" />
        </mxCell>
        <mxCell id="9YRlblP6MZ6Cb8axo9Pt-54" value="Username" style="shape=parallelogram;perimeter=parallelogramPerimeter;whiteSpace=wrap;html=1;fixedSize=1;" vertex="1" parent="WIyWlLk6GJQsqaUBKTNV-1">
          <mxGeometry x="160" y="570" width="120" height="60" as="geometry" />
        </mxCell>
        <mxCell id="9YRlblP6MZ6Cb8axo9Pt-61" style="edgeStyle=elbowEdgeStyle;rounded=0;orthogonalLoop=1;jettySize=auto;html=1;entryX=1;entryY=0.5;entryDx=0;entryDy=0;exitX=0;exitY=0.5;exitDx=0;exitDy=0;elbow=vertical;entryPerimeter=0;" edge="1" parent="WIyWlLk6GJQsqaUBKTNV-1" source="9YRlblP6MZ6Cb8axo9Pt-57" target="9YRlblP6MZ6Cb8axo9Pt-72">
          <mxGeometry relative="1" as="geometry">
            <mxPoint x="90" y="590" as="targetPoint" />
            <Array as="points">
              <mxPoint x="140" y="720" />
            </Array>
          </mxGeometry>
        </mxCell>
        <mxCell id="9YRlblP6MZ6Cb8axo9Pt-73" value="Yes" style="edgeLabel;html=1;align=center;verticalAlign=middle;resizable=0;points=[];" vertex="1" connectable="0" parent="9YRlblP6MZ6Cb8axo9Pt-61">
          <mxGeometry x="-0.0143" y="1" relative="1" as="geometry">
            <mxPoint as="offset" />
          </mxGeometry>
        </mxCell>
        <mxCell id="9YRlblP6MZ6Cb8axo9Pt-65" style="edgeStyle=orthogonalEdgeStyle;rounded=0;orthogonalLoop=1;jettySize=auto;html=1;entryX=0.5;entryY=0;entryDx=0;entryDy=0;" edge="1" parent="WIyWlLk6GJQsqaUBKTNV-1" source="9YRlblP6MZ6Cb8axo9Pt-57" target="9YRlblP6MZ6Cb8axo9Pt-64">
          <mxGeometry relative="1" as="geometry" />
        </mxCell>
        <mxCell id="9YRlblP6MZ6Cb8axo9Pt-66" value="No" style="edgeLabel;html=1;align=center;verticalAlign=middle;resizable=0;points=[];" vertex="1" connectable="0" parent="9YRlblP6MZ6Cb8axo9Pt-65">
          <mxGeometry x="-0.0743" y="3" relative="1" as="geometry">
            <mxPoint x="-3" y="-3" as="offset" />
          </mxGeometry>
        </mxCell>
        <mxCell id="9YRlblP6MZ6Cb8axo9Pt-57" value="&lt;div&gt;Username&amp;nbsp;&lt;/div&gt;&lt;div&gt;already exists?&lt;/div&gt;" style="rhombus;whiteSpace=wrap;html=1;" vertex="1" parent="WIyWlLk6GJQsqaUBKTNV-1">
          <mxGeometry x="160" y="680" width="120" height="80" as="geometry" />
        </mxCell>
        <mxCell id="9YRlblP6MZ6Cb8axo9Pt-68" style="edgeStyle=orthogonalEdgeStyle;rounded=0;orthogonalLoop=1;jettySize=auto;html=1;entryX=0.5;entryY=0;entryDx=0;entryDy=0;" edge="1" parent="WIyWlLk6GJQsqaUBKTNV-1" source="9YRlblP6MZ6Cb8axo9Pt-64" target="9YRlblP6MZ6Cb8axo9Pt-67">
          <mxGeometry relative="1" as="geometry" />
        </mxCell>
        <mxCell id="9YRlblP6MZ6Cb8axo9Pt-64" value="Password" style="shape=parallelogram;perimeter=parallelogramPerimeter;whiteSpace=wrap;html=1;fixedSize=1;" vertex="1" parent="WIyWlLk6GJQsqaUBKTNV-1">
          <mxGeometry x="160" y="810" width="120" height="60" as="geometry" />
        </mxCell>
        <mxCell id="9YRlblP6MZ6Cb8axo9Pt-79" style="edgeStyle=orthogonalEdgeStyle;rounded=0;orthogonalLoop=1;jettySize=auto;html=1;entryX=0.5;entryY=0;entryDx=0;entryDy=0;" edge="1" parent="WIyWlLk6GJQsqaUBKTNV-1" source="9YRlblP6MZ6Cb8axo9Pt-67" target="9YRlblP6MZ6Cb8axo9Pt-80">
          <mxGeometry relative="1" as="geometry">
            <mxPoint x="220.00000000000023" y="1080" as="targetPoint" />
          </mxGeometry>
        </mxCell>
        <mxCell id="9YRlblP6MZ6Cb8axo9Pt-94" value="" style="edgeStyle=orthogonalEdgeStyle;rounded=0;orthogonalLoop=1;jettySize=auto;html=1;" edge="1" parent="WIyWlLk6GJQsqaUBKTNV-1" source="9YRlblP6MZ6Cb8axo9Pt-67" target="9YRlblP6MZ6Cb8axo9Pt-80">
          <mxGeometry relative="1" as="geometry" />
        </mxCell>
        <mxCell id="9YRlblP6MZ6Cb8axo9Pt-95" value="Yes" style="edgeLabel;html=1;align=center;verticalAlign=middle;resizable=0;points=[];" vertex="1" connectable="0" parent="9YRlblP6MZ6Cb8axo9Pt-94">
          <mxGeometry x="-0.054" y="1" relative="1" as="geometry">
            <mxPoint as="offset" />
          </mxGeometry>
        </mxCell>
        <mxCell id="9YRlblP6MZ6Cb8axo9Pt-67" value="Strong enough?" style="rhombus;whiteSpace=wrap;html=1;" vertex="1" parent="WIyWlLk6GJQsqaUBKTNV-1">
          <mxGeometry x="160" y="930" width="120" height="80" as="geometry" />
        </mxCell>
        <mxCell id="9YRlblP6MZ6Cb8axo9Pt-70" style="edgeStyle=elbowEdgeStyle;rounded=0;orthogonalLoop=1;jettySize=auto;html=1;exitX=0;exitY=0.5;exitDx=0;exitDy=0;elbow=horizontal;entryX=1;entryY=0.5;entryDx=0;entryDy=0;entryPerimeter=0;" edge="1" parent="WIyWlLk6GJQsqaUBKTNV-1" target="9YRlblP6MZ6Cb8axo9Pt-75">
          <mxGeometry relative="1" as="geometry">
            <mxPoint x="110" y="970" as="targetPoint" />
            <mxPoint x="160" y="970" as="sourcePoint" />
            <Array as="points">
              <mxPoint x="120" y="920" />
            </Array>
          </mxGeometry>
        </mxCell>
        <mxCell id="9YRlblP6MZ6Cb8axo9Pt-77" value="No" style="edgeLabel;html=1;align=center;verticalAlign=middle;resizable=0;points=[];" vertex="1" connectable="0" parent="9YRlblP6MZ6Cb8axo9Pt-70">
          <mxGeometry x="-0.1359" relative="1" as="geometry">
            <mxPoint as="offset" />
          </mxGeometry>
        </mxCell>
        <mxCell id="9YRlblP6MZ6Cb8axo9Pt-74" style="edgeStyle=orthogonalEdgeStyle;rounded=0;orthogonalLoop=1;jettySize=auto;html=1;entryX=0;entryY=0.5;entryDx=0;entryDy=0;" edge="1" parent="WIyWlLk6GJQsqaUBKTNV-1" source="9YRlblP6MZ6Cb8axo9Pt-72" target="9YRlblP6MZ6Cb8axo9Pt-54">
          <mxGeometry relative="1" as="geometry">
            <Array as="points">
              <mxPoint x="-20" y="720" />
              <mxPoint x="-20" y="600" />
            </Array>
          </mxGeometry>
        </mxCell>
        <mxCell id="9YRlblP6MZ6Cb8axo9Pt-72" value="&lt;div&gt;Username&amp;nbsp;&lt;/div&gt;&lt;div&gt;already exists&lt;/div&gt;" style="strokeWidth=2;html=1;shape=mxgraph.flowchart.display;whiteSpace=wrap;" vertex="1" parent="WIyWlLk6GJQsqaUBKTNV-1">
          <mxGeometry y="690" width="100" height="60" as="geometry" />
        </mxCell>
        <mxCell id="9YRlblP6MZ6Cb8axo9Pt-76" style="edgeStyle=orthogonalEdgeStyle;rounded=0;orthogonalLoop=1;jettySize=auto;html=1;entryX=0;entryY=0.5;entryDx=0;entryDy=0;" edge="1" parent="WIyWlLk6GJQsqaUBKTNV-1" source="9YRlblP6MZ6Cb8axo9Pt-75" target="9YRlblP6MZ6Cb8axo9Pt-64">
          <mxGeometry relative="1" as="geometry">
            <Array as="points">
              <mxPoint x="-20" y="970" />
              <mxPoint x="-20" y="840" />
            </Array>
          </mxGeometry>
        </mxCell>
        <mxCell id="9YRlblP6MZ6Cb8axo9Pt-75" value="Pwd not strong enough" style="strokeWidth=2;html=1;shape=mxgraph.flowchart.display;whiteSpace=wrap;" vertex="1" parent="WIyWlLk6GJQsqaUBKTNV-1">
          <mxGeometry y="940" width="100" height="60" as="geometry" />
        </mxCell>
        <mxCell id="9YRlblP6MZ6Cb8axo9Pt-82" value="" style="edgeStyle=orthogonalEdgeStyle;rounded=0;orthogonalLoop=1;jettySize=auto;html=1;" edge="1" parent="WIyWlLk6GJQsqaUBKTNV-1" source="9YRlblP6MZ6Cb8axo9Pt-80" target="9YRlblP6MZ6Cb8axo9Pt-81">
          <mxGeometry relative="1" as="geometry" />
        </mxCell>
        <mxCell id="9YRlblP6MZ6Cb8axo9Pt-96" value="Yes" style="edgeLabel;html=1;align=center;verticalAlign=middle;resizable=0;points=[];" vertex="1" connectable="0" parent="9YRlblP6MZ6Cb8axo9Pt-82">
          <mxGeometry x="0.0014" y="1" relative="1" as="geometry">
            <mxPoint as="offset" />
          </mxGeometry>
        </mxCell>
        <mxCell id="9YRlblP6MZ6Cb8axo9Pt-80" value="&lt;div&gt;Confirm&lt;/div&gt;&lt;div&gt;password&lt;/div&gt;" style="shape=parallelogram;perimeter=parallelogramPerimeter;whiteSpace=wrap;html=1;fixedSize=1;" vertex="1" parent="WIyWlLk6GJQsqaUBKTNV-1">
          <mxGeometry x="160" y="1070" width="120" height="60" as="geometry" />
        </mxCell>
        <mxCell id="9YRlblP6MZ6Cb8axo9Pt-81" value="&lt;div&gt;Password&lt;/div&gt;&lt;div&gt;matched?&lt;/div&gt;" style="rhombus;whiteSpace=wrap;html=1;" vertex="1" parent="WIyWlLk6GJQsqaUBKTNV-1">
          <mxGeometry x="160" y="1200" width="120" height="80" as="geometry" />
        </mxCell>
        <mxCell id="9YRlblP6MZ6Cb8axo9Pt-85" style="edgeStyle=orthogonalEdgeStyle;rounded=0;orthogonalLoop=1;jettySize=auto;html=1;entryX=0;entryY=0.5;entryDx=0;entryDy=0;" edge="1" parent="WIyWlLk6GJQsqaUBKTNV-1" source="9YRlblP6MZ6Cb8axo9Pt-83" target="9YRlblP6MZ6Cb8axo9Pt-80">
          <mxGeometry relative="1" as="geometry">
            <Array as="points">
              <mxPoint x="-20" y="1240" />
              <mxPoint x="-20" y="1100" />
            </Array>
          </mxGeometry>
        </mxCell>
        <mxCell id="9YRlblP6MZ6Cb8axo9Pt-83" value="Pwd doesn&#39;t match" style="strokeWidth=2;html=1;shape=mxgraph.flowchart.display;whiteSpace=wrap;" vertex="1" parent="WIyWlLk6GJQsqaUBKTNV-1">
          <mxGeometry y="1210" width="100" height="60" as="geometry" />
        </mxCell>
        <mxCell id="9YRlblP6MZ6Cb8axo9Pt-84" style="edgeStyle=orthogonalEdgeStyle;rounded=0;orthogonalLoop=1;jettySize=auto;html=1;entryX=1;entryY=0.5;entryDx=0;entryDy=0;entryPerimeter=0;" edge="1" parent="WIyWlLk6GJQsqaUBKTNV-1" source="9YRlblP6MZ6Cb8axo9Pt-81" target="9YRlblP6MZ6Cb8axo9Pt-83">
          <mxGeometry relative="1" as="geometry" />
        </mxCell>
        <mxCell id="9YRlblP6MZ6Cb8axo9Pt-87" value="No" style="edgeLabel;html=1;align=center;verticalAlign=middle;resizable=0;points=[];" vertex="1" connectable="0" parent="9YRlblP6MZ6Cb8axo9Pt-84">
          <mxGeometry x="-0.0333" y="1" relative="1" as="geometry">
            <mxPoint y="-1" as="offset" />
          </mxGeometry>
        </mxCell>
        <mxCell id="9YRlblP6MZ6Cb8axo9Pt-89" style="edgeStyle=orthogonalEdgeStyle;rounded=0;orthogonalLoop=1;jettySize=auto;html=1;entryX=0.5;entryY=0;entryDx=0;entryDy=0;entryPerimeter=0;" edge="1" parent="WIyWlLk6GJQsqaUBKTNV-1" source="9YRlblP6MZ6Cb8axo9Pt-81">
          <mxGeometry relative="1" as="geometry">
            <mxPoint x="220" y="1350" as="targetPoint" />
          </mxGeometry>
        </mxCell>
        <mxCell id="9YRlblP6MZ6Cb8axo9Pt-97" value="Yes" style="edgeLabel;html=1;align=center;verticalAlign=middle;resizable=0;points=[];" vertex="1" connectable="0" parent="9YRlblP6MZ6Cb8axo9Pt-89">
          <mxGeometry x="-0.019" y="-2" relative="1" as="geometry">
            <mxPoint as="offset" />
          </mxGeometry>
        </mxCell>
        <mxCell id="9YRlblP6MZ6Cb8axo9Pt-93" style="edgeStyle=orthogonalEdgeStyle;rounded=0;orthogonalLoop=1;jettySize=auto;html=1;" edge="1" parent="WIyWlLk6GJQsqaUBKTNV-1" source="9YRlblP6MZ6Cb8axo9Pt-92">
          <mxGeometry relative="1" as="geometry">
            <mxPoint x="220" y="1480" as="targetPoint" />
          </mxGeometry>
        </mxCell>
        <mxCell id="9YRlblP6MZ6Cb8axo9Pt-92" value="Encrypt password" style="rounded=0;whiteSpace=wrap;html=1;" vertex="1" parent="WIyWlLk6GJQsqaUBKTNV-1">
          <mxGeometry x="160" y="1350" width="120" height="60" as="geometry" />
        </mxCell>
        <mxCell id="9YRlblP6MZ6Cb8axo9Pt-102" value="" style="edgeStyle=orthogonalEdgeStyle;rounded=0;orthogonalLoop=1;jettySize=auto;html=1;" edge="1" parent="WIyWlLk6GJQsqaUBKTNV-1" source="9YRlblP6MZ6Cb8axo9Pt-101" target="9YRlblP6MZ6Cb8axo9Pt-23">
          <mxGeometry relative="1" as="geometry" />
        </mxCell>
        <mxCell id="9YRlblP6MZ6Cb8axo9Pt-101" value="&lt;div&gt;Read directory &amp;nbsp; &amp;nbsp; &lt;br&gt;&lt;/div&gt;&lt;div&gt;that stores &amp;nbsp; &amp;nbsp; &lt;br&gt;&lt;/div&gt;&lt;div&gt;account data&amp;nbsp; &amp;nbsp;&amp;nbsp; &lt;br&gt;&lt;/div&gt;&lt;div&gt;files&amp;nbsp; &amp;nbsp; &lt;br&gt;&lt;/div&gt;" style="strokeWidth=2;html=1;shape=mxgraph.flowchart.multi-document;whiteSpace=wrap;" vertex="1" parent="WIyWlLk6GJQsqaUBKTNV-1">
          <mxGeometry x="160" y="170" width="120" height="100" as="geometry" />
        </mxCell>
        <mxCell id="9YRlblP6MZ6Cb8axo9Pt-103" value="&lt;div&gt;Store user&lt;/div&gt;&lt;div&gt;credentials&lt;/div&gt;" style="shape=document;whiteSpace=wrap;html=1;boundedLbl=1;" vertex="1" parent="WIyWlLk6GJQsqaUBKTNV-1">
          <mxGeometry x="160" y="1480" width="120" height="80" as="geometry" />
        </mxCell>
        <mxCell id="9YRlblP6MZ6Cb8axo9Pt-128" style="edgeStyle=orthogonalEdgeStyle;rounded=0;orthogonalLoop=1;jettySize=auto;html=1;entryX=0.5;entryY=0;entryDx=0;entryDy=0;" edge="1" parent="WIyWlLk6GJQsqaUBKTNV-1" source="9YRlblP6MZ6Cb8axo9Pt-104">
          <mxGeometry relative="1" as="geometry">
            <mxPoint x="570" y="820" as="targetPoint" />
          </mxGeometry>
        </mxCell>
        <mxCell id="9YRlblP6MZ6Cb8axo9Pt-104" value="Username" style="shape=parallelogram;perimeter=parallelogramPerimeter;whiteSpace=wrap;html=1;fixedSize=1;" vertex="1" parent="WIyWlLk6GJQsqaUBKTNV-1">
          <mxGeometry x="510" y="690" width="120" height="60" as="geometry" />
        </mxCell>
        <mxCell id="9YRlblP6MZ6Cb8axo9Pt-111" value="" style="edgeStyle=orthogonalEdgeStyle;rounded=0;orthogonalLoop=1;jettySize=auto;html=1;" edge="1" parent="WIyWlLk6GJQsqaUBKTNV-1" source="9YRlblP6MZ6Cb8axo9Pt-107" target="9YRlblP6MZ6Cb8axo9Pt-110">
          <mxGeometry relative="1" as="geometry" />
        </mxCell>
        <mxCell id="9YRlblP6MZ6Cb8axo9Pt-132" value="No" style="edgeLabel;html=1;align=center;verticalAlign=middle;resizable=0;points=[];" vertex="1" connectable="0" parent="9YRlblP6MZ6Cb8axo9Pt-111">
          <mxGeometry x="-0.525" y="1" relative="1" as="geometry">
            <mxPoint y="-1" as="offset" />
          </mxGeometry>
        </mxCell>
        <mxCell id="9YRlblP6MZ6Cb8axo9Pt-121" value="" style="edgeStyle=orthogonalEdgeStyle;rounded=0;orthogonalLoop=1;jettySize=auto;html=1;" edge="1" parent="WIyWlLk6GJQsqaUBKTNV-1" source="9YRlblP6MZ6Cb8axo9Pt-107" target="9YRlblP6MZ6Cb8axo9Pt-120">
          <mxGeometry relative="1" as="geometry" />
        </mxCell>
        <mxCell id="9YRlblP6MZ6Cb8axo9Pt-122" value="Yes" style="edgeLabel;html=1;align=center;verticalAlign=middle;resizable=0;points=[];" vertex="1" connectable="0" parent="9YRlblP6MZ6Cb8axo9Pt-121">
          <mxGeometry x="-0.04" y="-1" relative="1" as="geometry">
            <mxPoint as="offset" />
          </mxGeometry>
        </mxCell>
        <mxCell id="9YRlblP6MZ6Cb8axo9Pt-107" value="&lt;div&gt;Username&amp;nbsp;&lt;/div&gt;&lt;div&gt;exists?&lt;/div&gt;" style="rhombus;whiteSpace=wrap;html=1;" vertex="1" parent="WIyWlLk6GJQsqaUBKTNV-1">
          <mxGeometry x="510" y="960" width="120" height="80" as="geometry" />
        </mxCell>
        <mxCell id="9YRlblP6MZ6Cb8axo9Pt-114" style="edgeStyle=orthogonalEdgeStyle;rounded=0;orthogonalLoop=1;jettySize=auto;html=1;" edge="1" parent="WIyWlLk6GJQsqaUBKTNV-1" source="9YRlblP6MZ6Cb8axo9Pt-110" target="9YRlblP6MZ6Cb8axo9Pt-64">
          <mxGeometry relative="1" as="geometry" />
        </mxCell>
        <mxCell id="9YRlblP6MZ6Cb8axo9Pt-115" value="Yes" style="edgeLabel;html=1;align=center;verticalAlign=middle;resizable=0;points=[];" vertex="1" connectable="0" parent="9YRlblP6MZ6Cb8axo9Pt-114">
          <mxGeometry x="-0.025" y="-1" relative="1" as="geometry">
            <mxPoint as="offset" />
          </mxGeometry>
        </mxCell>
        <mxCell id="9YRlblP6MZ6Cb8axo9Pt-110" value="Create user?" style="shape=parallelogram;perimeter=parallelogramPerimeter;whiteSpace=wrap;html=1;fixedSize=1;" vertex="1" parent="WIyWlLk6GJQsqaUBKTNV-1">
          <mxGeometry x="340" y="810" width="120" height="60" as="geometry" />
        </mxCell>
        <mxCell id="9YRlblP6MZ6Cb8axo9Pt-116" style="edgeStyle=orthogonalEdgeStyle;rounded=0;orthogonalLoop=1;jettySize=auto;html=1;entryX=0;entryY=0.5;entryDx=0;entryDy=0;entryPerimeter=0;exitX=0.5;exitY=0;exitDx=0;exitDy=0;" edge="1" parent="WIyWlLk6GJQsqaUBKTNV-1" source="9YRlblP6MZ6Cb8axo9Pt-110" target="9YRlblP6MZ6Cb8axo9Pt-50">
          <mxGeometry relative="1" as="geometry">
            <Array as="points">
              <mxPoint x="400" y="600" />
            </Array>
          </mxGeometry>
        </mxCell>
        <mxCell id="9YRlblP6MZ6Cb8axo9Pt-117" value="No" style="edgeLabel;html=1;align=center;verticalAlign=middle;resizable=0;points=[];" vertex="1" connectable="0" parent="9YRlblP6MZ6Cb8axo9Pt-116">
          <mxGeometry x="-0.3651" relative="1" as="geometry">
            <mxPoint as="offset" />
          </mxGeometry>
        </mxCell>
        <mxCell id="9YRlblP6MZ6Cb8axo9Pt-120" value="Password" style="shape=parallelogram;perimeter=parallelogramPerimeter;whiteSpace=wrap;html=1;fixedSize=1;" vertex="1" parent="WIyWlLk6GJQsqaUBKTNV-1">
          <mxGeometry x="510" y="1109" width="120" height="60" as="geometry" />
        </mxCell>
        <mxCell id="9YRlblP6MZ6Cb8axo9Pt-124" style="edgeStyle=orthogonalEdgeStyle;rounded=0;orthogonalLoop=1;jettySize=auto;html=1;entryX=0.5;entryY=0;entryDx=0;entryDy=0;entryPerimeter=0;" edge="1" parent="WIyWlLk6GJQsqaUBKTNV-1" source="WIyWlLk6GJQsqaUBKTNV-3" target="9YRlblP6MZ6Cb8axo9Pt-101">
          <mxGeometry relative="1" as="geometry" />
        </mxCell>
        <mxCell id="9YRlblP6MZ6Cb8axo9Pt-129" style="edgeStyle=orthogonalEdgeStyle;rounded=0;orthogonalLoop=1;jettySize=auto;html=1;entryX=0.5;entryY=0;entryDx=0;entryDy=0;exitX=0.5;exitY=0.88;exitDx=0;exitDy=0;exitPerimeter=0;" edge="1" parent="WIyWlLk6GJQsqaUBKTNV-1" source="9YRlblP6MZ6Cb8axo9Pt-130" target="9YRlblP6MZ6Cb8axo9Pt-107">
          <mxGeometry relative="1" as="geometry">
            <mxPoint x="570" y="880" as="sourcePoint" />
          </mxGeometry>
        </mxCell>
        <mxCell id="9YRlblP6MZ6Cb8axo9Pt-131" value="" style="edgeStyle=orthogonalEdgeStyle;rounded=0;orthogonalLoop=1;jettySize=auto;html=1;" edge="1" parent="WIyWlLk6GJQsqaUBKTNV-1" source="9YRlblP6MZ6Cb8axo9Pt-130" target="9YRlblP6MZ6Cb8axo9Pt-107">
          <mxGeometry relative="1" as="geometry" />
        </mxCell>
        <mxCell id="9YRlblP6MZ6Cb8axo9Pt-130" value="&lt;div&gt;Read directory &amp;nbsp; &amp;nbsp; &lt;br&gt;&lt;/div&gt;&lt;div&gt;that stores &amp;nbsp; &amp;nbsp; &lt;br&gt;&lt;/div&gt;&lt;div&gt;account data&amp;nbsp; &amp;nbsp;&amp;nbsp; &lt;br&gt;&lt;/div&gt;&lt;div&gt;files&amp;nbsp; &amp;nbsp; &lt;br&gt;&lt;/div&gt;" style="strokeWidth=2;html=1;shape=mxgraph.flowchart.multi-document;whiteSpace=wrap;" vertex="1" parent="WIyWlLk6GJQsqaUBKTNV-1">
          <mxGeometry x="510" y="820" width="120" height="100" as="geometry" />
        </mxCell>
      </root>
    </mxGraphModel>
  </diagram>
</mxfile>
